<?xml version="1.0" standalone="no"?>
<!DOCTYPE svg PUBLIC "-//W3C//DTD SVG 20010904//EN"
 "http://www.w3.org/TR/2001/REC-SVG-20010904/DTD/svg10.dtd">
<svg version="1.0" xmlns="http://www.w3.org/2000/svg"
 width="225.000000pt" height="225.000000pt" viewBox="0 0 225.000000 225.000000"
 preserveAspectRatio="xMidYMid meet">
<metadata>
Created by potrace 1.11, written by Peter Selinger 2001-2013
</metadata>
<g transform="translate(0.000000,225.000000) scale(0.100000,-0.100000)"
fill="#000000" stroke="none">
<path d="M166 2234 c-57 -21 -102 -58 -133 -112 l-28 -47 -3 -929 c-3 -1050
-7 -992 73 -1072 78 -77 32 -74 1050 -74 1018 0 972 -3 1049 74 80 79 76 24
76 1046 0 1024 3 977 -74 1054 -80 80 -23 76 -1055 75 -769 0 -922 -3 -955
-15z m1074 -438 c178 -45 324 -162 398 -317 60 -127 76 -200 76 -364 1 -159
-19 -250 -77 -360 -50 -94 -155 -194 -257 -244 -126 -62 -185 -71 -463 -71
-265 0 -292 5 -327 62 -19 32 -20 49 -20 630 l0 596 27 33 c49 58 62 60 333
55 184 -3 261 -8 310 -20z"/>
<path d="M860 1130 l0 -420 140 0 c153 0 207 13 275 65 104 78 157 244 135
419 -18 149 -71 244 -167 302 -67 40 -139 54 -275 54 l-108 0 0 -420z"/>
</g>
</svg>
